<?xml version="1.0" encoding="UTF-8"?>
<!DOCTYPE svg PUBLIC "-//W3C//DTD SVG 1.1//EN" "http://www.w3.org/Graphics/SVG/1.1/DTD/svg11.dtd">
<svg xmlns="http://www.w3.org/2000/svg" version="1.1" width="118px" height="136px" style="shape-rendering:geometricPrecision; text-rendering:geometricPrecision; image-rendering:optimizeQuality; fill-rule:evenodd; clip-rule:evenodd" xmlns:xlink="http://www.w3.org/1999/xlink">
<g><path style="opacity:1" fill="#dfc3c6" d="M 56.5,44.5 C 53.8938,45.1359 51.3938,45.1359 49,44.5C 46.5517,46.6906 43.7184,48.0239 40.5,48.5C 40.5,47.5 40.5,46.5 40.5,45.5C 39.5,45.5 38.5,45.5 37.5,45.5C 43.597,40.5332 49.9304,40.1999 56.5,44.5 Z"/></g>
<g><path style="opacity:1" fill="#e9c7c7" d="M 56.5,44.5 C 58.8525,45.3403 60.8525,46.6736 62.5,48.5C 60.8235,49.1834 60.1568,50.5168 60.5,52.5C 60.5,52.8333 60.5,53.1667 60.5,53.5C 58.4317,52.2594 56.265,51.2594 54,50.5C 51.4564,51.0712 48.9564,51.7379 46.5,52.5C 45.6851,53.4293 44.8518,54.4293 44,55.5C 42.7383,53.2156 41.5717,50.8823 40.5,48.5C 43.7184,48.0239 46.5517,46.6906 49,44.5C 51.3938,45.1359 53.8938,45.1359 56.5,44.5 Z"/></g>
<g><path style="opacity:1" fill="#e9bebf" d="M 37.5,45.5 C 38.5,45.5 39.5,45.5 40.5,45.5C 40.5,46.5 40.5,47.5 40.5,48.5C 41.5717,50.8823 42.7383,53.2156 44,55.5C 44.8518,54.4293 45.6851,53.4293 46.5,52.5C 46.0074,54.8056 45.6741,57.139 45.5,59.5C 45.5,59.8333 45.5,60.1667 45.5,60.5C 44.8333,60.5 44.1667,60.5 43.5,60.5C 42.8386,59.2825 42.1719,57.9492 41.5,56.5C 40.2679,55.8555 38.9346,55.6888 37.5,56C 36.1206,51.8091 33.4539,50.6424 29.5,52.5C 31.5691,49.4275 34.2358,47.0941 37.5,45.5 Z"/></g>
<g><path style="opacity:1" fill="#e8c1c2" d="M 62.5,48.5 C 65.8547,50.5213 68.5213,53.188 70.5,56.5C 69.5,55.1667 68.5,55.1667 67.5,56.5C 65.8762,56.6399 64.7096,55.9733 64,54.5C 63.6667,54.8333 63.3333,55.1667 63,55.5C 62.1482,54.4293 61.3149,53.4293 60.5,52.5C 60.1568,50.5168 60.8235,49.1834 62.5,48.5 Z"/></g>
<g><path style="opacity:1" fill="#f0cbcb" d="M 60.5,53.5 C 60.2785,56.0673 59.6118,58.4006 58.5,60.5C 58.1667,59.5 57.5,58.8333 56.5,58.5C 54.1846,51.9079 51.518,51.9079 48.5,58.5C 47.609,59.1098 46.609,59.4431 45.5,59.5C 45.6741,57.139 46.0074,54.8056 46.5,52.5C 48.9564,51.7379 51.4564,51.0712 54,50.5C 56.265,51.2594 58.4317,52.2594 60.5,53.5 Z"/></g>
<g><path style="opacity:1" fill="#ebb9b9" d="M 43.5,60.5 C 42.8333,61.1667 42.1667,61.8333 41.5,62.5C 40.3994,61.1516 39.3994,59.6516 38.5,58C 34.6495,57.5856 30.9828,56.7523 27.5,55.5C 27.427,53.9731 28.0937,52.9731 29.5,52.5C 33.4539,50.6424 36.1206,51.8091 37.5,56C 38.9346,55.6888 40.2679,55.8555 41.5,56.5C 42.1719,57.9492 42.8386,59.2825 43.5,60.5 Z"/></g>
<g><path style="opacity:1" fill="#f5d2d2" d="M 56.5,58.5 C 56.3132,62.2292 54.6465,64.8958 51.5,66.5C 50.5581,66.3918 49.7247,66.0585 49,65.5C 48.5034,63.1902 48.3367,60.8568 48.5,58.5C 51.518,51.9079 54.1846,51.9079 56.5,58.5 Z"/></g>
<g><path style="opacity:1" fill="#eeb3b4" d="M 27.5,55.5 C 30.9828,56.7523 34.6495,57.5856 38.5,58C 39.3994,59.6516 40.3994,61.1516 41.5,62.5C 41.8925,64.2838 42.5592,65.9505 43.5,67.5C 42.8333,67.8333 42.1667,68.1667 41.5,68.5C 40.8825,66.7708 39.8825,65.2708 38.5,64C 33.6203,63.4685 29.1203,61.9685 25,59.5C 24.2917,60.3805 23.4584,61.0472 22.5,61.5C 23.4194,58.9108 25.086,56.9108 27.5,55.5 Z"/></g>
<g><path style="opacity:1" fill="#efb4b4" d="M 70.5,56.5 C 73.0045,58.1443 75.6711,59.6443 78.5,61C 75.6305,62.5963 72.9639,64.4297 70.5,66.5C 70.719,65.325 70.3857,64.325 69.5,63.5C 68.135,64.8069 66.8016,64.8069 65.5,63.5C 64.8333,63.1667 64.1667,62.8333 63.5,62.5C 65.2255,60.7721 66.5589,58.7721 67.5,56.5C 68.5,55.1667 69.5,55.1667 70.5,56.5 Z"/></g>
<g><path style="opacity:1" fill="#f1aeaf" d="M 41.5,68.5 C 40.5,68.5 39.5,68.5 38.5,68.5C 37.0384,67.5423 35.7051,66.3756 34.5,65C 32.5273,64.5045 30.5273,64.3379 28.5,64.5C 25.6907,64.043 23.024,64.043 20.5,64.5C 20.427,62.9731 21.0937,61.9731 22.5,61.5C 23.4584,61.0472 24.2917,60.3805 25,59.5C 29.1203,61.9685 33.6203,63.4685 38.5,64C 39.8825,65.2708 40.8825,66.7708 41.5,68.5 Z"/></g>
<g><path style="opacity:1" fill="#f3c2c2" d="M 60.5,52.5 C 61.3149,53.4293 62.1482,54.4293 63,55.5C 63.3333,55.1667 63.6667,54.8333 64,54.5C 64.7096,55.9733 65.8762,56.6399 67.5,56.5C 66.5589,58.7721 65.2255,60.7721 63.5,62.5C 62.5041,62.5858 61.6708,62.2524 61,61.5C 59.7225,63.7472 58.2225,65.7472 56.5,67.5C 55.8333,67.5 55.1667,67.5 54.5,67.5C 56.6037,65.6282 57.937,63.2948 58.5,60.5C 59.6118,58.4006 60.2785,56.0673 60.5,53.5C 60.5,53.1667 60.5,52.8333 60.5,52.5 Z"/></g>
<g><path style="opacity:1" fill="#f4a8a8" d="M 28.5,64.5 C 30.1667,65.8333 31.8333,67.1667 33.5,68.5C 30.15,68.3865 26.8167,68.0531 23.5,67.5C 21.6672,67.5854 20.3339,68.2521 19.5,69.5C 18.7611,69.631 18.0944,69.4643 17.5,69C 18.3994,67.3484 19.3994,65.8484 20.5,64.5C 23.024,64.043 25.6907,64.043 28.5,64.5 Z"/></g>
<g><path style="opacity:1" fill="#f8cbcb" d="M 48.5,58.5 C 48.3367,60.8568 48.5034,63.1902 49,65.5C 49.7247,66.0585 50.5581,66.3918 51.5,66.5C 54.6465,64.8958 56.3132,62.2292 56.5,58.5C 57.5,58.8333 58.1667,59.5 58.5,60.5C 57.937,63.2948 56.6037,65.6282 54.5,67.5C 48.4399,69.4613 45.4399,67.128 45.5,60.5C 45.5,60.1667 45.5,59.8333 45.5,59.5C 46.609,59.4431 47.609,59.1098 48.5,58.5 Z"/></g>
<g><path style="opacity:1" fill="#f9bcbc" d="M 63.5,62.5 C 64.1667,62.8333 64.8333,63.1667 65.5,63.5C 63.8622,65.3008 62.0289,66.9675 60,68.5C 59.6667,68.1667 59.3333,67.8333 59,67.5C 53.5605,73.7559 48.3939,73.7559 43.5,67.5C 45.7915,68.8914 48.2915,69.8914 51,70.5C 53.2151,70.1004 55.0484,69.1004 56.5,67.5C 58.2225,65.7472 59.7225,63.7472 61,61.5C 61.6708,62.2524 62.5041,62.5858 63.5,62.5 Z"/></g>
<g><path style="opacity:1" fill="#f9c3c3" d="M 43.5,60.5 C 44.1667,60.5 44.8333,60.5 45.5,60.5C 45.4399,67.128 48.4399,69.4613 54.5,67.5C 55.1667,67.5 55.8333,67.5 56.5,67.5C 55.0484,69.1004 53.2151,70.1004 51,70.5C 48.2915,69.8914 45.7915,68.8914 43.5,67.5C 42.5592,65.9505 41.8925,64.2838 41.5,62.5C 42.1667,61.8333 42.8333,61.1667 43.5,60.5 Z"/></g>
<g><path style="opacity:1" fill="#f9a1a1" d="M 33.5,68.5 C 35.9801,69.9117 38.3134,71.5784 40.5,73.5C 41.7733,74.2565 41.7733,74.9232 40.5,75.5C 38.2543,74.5448 35.921,73.8782 33.5,73.5C 32.8333,72.1667 32.1667,72.1667 31.5,73.5C 31.5,73.8333 31.5,74.1667 31.5,74.5C 31.5,75.8333 31.5,77.1667 31.5,78.5C 30.8354,76.6309 30.1687,74.6309 29.5,72.5C 27.7049,71.7349 25.8716,71.0682 24,70.5C 22.9701,70.8361 22.4701,71.5028 22.5,72.5C 21.1667,71.8333 20.1667,70.8333 19.5,69.5C 20.3339,68.2521 21.6672,67.5854 23.5,67.5C 26.8167,68.0531 30.15,68.3865 33.5,68.5 Z"/></g>
<g><path style="opacity:1" fill="#f7aaab" d="M 28.5,64.5 C 30.5273,64.3379 32.5273,64.5045 34.5,65C 35.7051,66.3756 37.0384,67.5423 38.5,68.5C 41.5051,72.6685 45.5051,75.3352 50.5,76.5C 50.5,77.5 50.5,78.5 50.5,79.5C 48.5328,79.7394 46.6995,79.4061 45,78.5C 44.5357,79.0944 44.369,79.7611 44.5,80.5C 43.7677,79.1917 42.9344,77.8584 42,76.5C 41.8091,78.7078 41.3091,80.7078 40.5,82.5C 40.5,80.1667 40.5,77.8333 40.5,75.5C 41.7733,74.9232 41.7733,74.2565 40.5,73.5C 38.3134,71.5784 35.9801,69.9117 33.5,68.5C 31.8333,67.1667 30.1667,65.8333 28.5,64.5 Z"/></g>
<g><path style="opacity:1" fill="#fbb3b4" d="M 65.5,63.5 C 66.8016,64.8069 68.135,64.8069 69.5,63.5C 70.3857,64.325 70.719,65.325 70.5,66.5C 68.8333,67.8333 67.1667,69.1667 65.5,70.5C 65.4827,68.9719 64.816,68.4719 63.5,69C 59.334,71.3897 55.6673,74.2231 52.5,77.5C 51.8333,81.5 51.1667,85.5 50.5,89.5C 50.5,86.1667 50.5,82.8333 50.5,79.5C 50.5,78.5 50.5,77.5 50.5,76.5C 45.5051,75.3352 41.5051,72.6685 38.5,68.5C 39.5,68.5 40.5,68.5 41.5,68.5C 42.1667,68.1667 42.8333,67.8333 43.5,67.5C 48.3939,73.7559 53.5605,73.7559 59,67.5C 59.3333,67.8333 59.6667,68.1667 60,68.5C 62.0289,66.9675 63.8622,65.3008 65.5,63.5 Z"/></g>
<g><path style="opacity:1" fill="#f4a6a6" d="M 65.5,70.5 C 63.7901,72.1996 61.7901,73.5329 59.5,74.5C 59.3621,77.6699 59.0288,80.8366 58.5,84C 57.2161,84.6838 56.0495,84.5171 55,83.5C 54.0617,81.5115 53.2283,79.5115 52.5,77.5C 55.6673,74.2231 59.334,71.3897 63.5,69C 64.816,68.4719 65.4827,68.9719 65.5,70.5 Z"/></g>
<g><path style="opacity:1" fill="#f89b9d" d="M 31.5,78.5 C 31.5,80.5 31.5,82.5 31.5,84.5C 30.3329,87.6898 28.6662,88.0232 26.5,85.5C 25.0092,81.2002 23.6758,76.8669 22.5,72.5C 22.4701,71.5028 22.9701,70.8361 24,70.5C 25.8716,71.0682 27.7049,71.7349 29.5,72.5C 30.1687,74.6309 30.8354,76.6309 31.5,78.5 Z"/></g>
<g><path style="opacity:1" fill="#e48d8e" d="M 33.5,73.5 C 35.921,73.8782 38.2543,74.5448 40.5,75.5C 40.5,77.8333 40.5,80.1667 40.5,82.5C 36.5084,83.1875 34.5084,81.1875 34.5,76.5C 34.4431,75.391 34.1098,74.391 33.5,73.5 Z"/></g>
<g><path style="opacity:0.133" fill="#c6acb7" d="M 31.5,73.5 C 32.1667,72.1667 32.8333,72.1667 33.5,73.5C 34.1098,74.391 34.4431,75.391 34.5,76.5C 33.8826,76.3893 33.3826,76.056 33,75.5C 32.8195,78.6946 32.3195,81.6946 31.5,84.5C 31.5,82.5 31.5,80.5 31.5,78.5C 31.5,77.1667 31.5,75.8333 31.5,74.5C 32.8333,74.1667 32.8333,73.8333 31.5,73.5 Z"/></g>
<g><path style="opacity:1" fill="#fca3a4" d="M 50.5,79.5 C 50.5,82.8333 50.5,86.1667 50.5,89.5C 49.7494,90.5735 48.7494,90.7401 47.5,90C 44.9712,87.3583 43.9712,84.1916 44.5,80.5C 44.369,79.7611 44.5357,79.0944 45,78.5C 46.6995,79.4061 48.5328,79.7394 50.5,79.5 Z"/></g>
</svg>
